<?xml version="1.0" encoding="utf-8"?>
<!-- Generator: Adobe Illustrator 26.0.1, SVG Export Plug-In . SVG Version: 6.00 Build 0)  -->
<svg version="1.1" id="Layer_1" xmlns="http://www.w3.org/2000/svg" xmlns:xlink="http://www.w3.org/1999/xlink" x="0px" y="0px"
	 viewBox="0 0 100 100" style="enable-background:new 0 0 100 100;" xml:space="preserve">
<style type="text/css">
	.st0{fill:#FFFFFF;}
	.st1{clip-path:url(#SVGID_00000147929620725018233080000004087128544369584806_);}
	.st2{clip-path:url(#SVGID_00000080179788445005848220000008302104112714890140_);}
	.st3{fill:#082E4D;}
	.st4{fill:#EF3A1C;}
	.st5{fill:#009E9E;}
	.st6{fill:#F7A21D;}
	.st7{fill:#009E96;}
	.st8{display:none;}
	.st9{display:inline;}
	.st10{opacity:0.15;}
	.st11{fill:#00AEEF;}
</style>
<g>
	<circle class="st0" cx="50" cy="50" r="45.94"/>
	<g>
		<g>
			<defs>
				<path id="SVGID_1_" d="M50,5.9c24.32,0,44.1,19.78,44.1,44.1S74.32,94.1,50,94.1S5.9,74.32,5.9,50S25.68,5.9,50,5.9 M50,4.06
					C24.63,4.06,4.06,24.63,4.06,50S24.63,95.94,50,95.94S95.94,75.37,95.94,50S75.37,4.06,50,4.06L50,4.06z"/>
			</defs>
			<clipPath id="SVGID_00000075851181765877307520000005033856063872351885_">
				<use xlink:href="#SVGID_1_"  style="overflow:visible;"/>
			</clipPath>
			<g style="clip-path:url(#SVGID_00000075851181765877307520000005033856063872351885_);">
				<g>
					<defs>
						<rect id="SVGID_00000134243812798418044100000006608060726855102374_" x="4.06" y="4.06" width="91.88" height="91.88"/>
					</defs>
					<clipPath id="SVGID_00000060004975980988152980000000931223265109156503_">
						<use xlink:href="#SVGID_00000134243812798418044100000006608060726855102374_"  style="overflow:visible;"/>
					</clipPath>
					<g style="clip-path:url(#SVGID_00000060004975980988152980000000931223265109156503_);">
						<g>
							<path class="st3" d="M197.23-3.36c2.16,8.22,5.37,29.8,5.37,53.36s-3.21,45.14-5.37,53.36
								c-6.74,25.7-15.76,29.46-35.38,24.09C116.75,116.17,50.18,69.92,50,50c0.18-19.92,66.75-66.17,111.85-77.45
								C181.47-32.82,190.49-29.06,197.23-3.36z"/>
							<path class="st4" d="M-97.23,103.36c-2.16-8.22-5.37-29.8-5.37-53.36s3.21-45.14,5.37-53.36
								c6.74-25.7,15.76-29.46,35.38-24.09C-16.75-16.17,49.82,30.08,50,50c-0.18,19.92-66.75,66.17-111.85,77.45
								C-81.47,132.82-90.49,129.06-97.23,103.36z"/>
						</g>
						<g>
							<path class="st5" d="M-3.36-97.23c8.22-2.16,29.8-5.37,53.36-5.37s45.14,3.21,53.36,5.37c25.7,6.74,29.46,15.76,24.09,35.38
								C116.17-16.75,69.92,49.82,50,50C30.08,49.82-16.17-16.75-27.45-61.85C-32.82-81.47-29.06-90.49-3.36-97.23z"/>
							<path class="st6" d="M103.36,197.23c-8.22,2.16-29.8,5.37-53.36,5.37s-45.14-3.21-53.36-5.37
								c-25.7-6.74-29.46-15.76-24.09-35.38C-16.17,116.75,30.08,50.18,50,50c19.92,0.18,66.17,66.75,77.45,111.85
								C132.82,181.47,129.06,190.49,103.36,197.23z"/>
						</g>
					</g>
				</g>
			</g>
		</g>
	</g>
	<circle class="st7" cx="50" cy="36.22" r="13.78"/>
	<path class="st7" d="M77.03,67.38c-1.42-4.73-5.76-8.2-10.95-8.2H33.92c-5.19,0-9.53,3.47-10.95,8.2
		C28.69,76.26,38.65,82.16,50,82.16S71.31,76.26,77.03,67.38z"/>
</g>
<g id="Layer_3" class="st8">
</g>
<g id="Layer_2_00000115492549269400122590000006285570076134884753_" class="st8">
	<g class="st9">
		<g>
			<g class="st10">
				<rect x="-15.57" class="st11" width="67" height="1080"/>
				<rect x="67.43" class="st11" width="67" height="1080"/>
			</g>
		</g>
	</g>
</g>
<g id="Layer_4" class="st8">
</g>
</svg>
