<svg width="488" height="267" viewBox="0 0 488 267" fill="none" xmlns="http://www.w3.org/2000/svg"><g opacity=".9"><path fill-rule="evenodd" clip-rule="evenodd" d="M167.381 114.79s6.78-1.792 9.322 2.452c2.543 4.245 18.174 56.126 18.457 56.176.282.05 2.919-.943 4.52.094 1.601 1.038 4.237 3.163 3.861 2.88-.377-.283-8.613 28.11-8.613 28.11s-25.237-5.471-26.932-6.791c-1.701-1.327-.615-82.921-.615-82.921z" fill="#082E4D"/><path fill-rule="evenodd" clip-rule="evenodd" d="M170.16 114.419c.59-.019 1.236 0 1.889.082l6.592 86.266c-5.273-1.277-9.957-2.522-10.653-3.069-1.206-.937-1.005-42.454-.791-66.376a2160.43 2160.43 0 0 1 2.963-16.903z" fill="#061827"/><path fill-rule="evenodd" clip-rule="evenodd" d="M120.333 103.301l-2.373.371s-40.517 16.658-40.988 18.545c-.47 1.886 14.031 69.331 15.914 76.311 1.45 5.377.22 18.256-.42 23.884h77.399c-.245-5.955-1.3-32.203-.798-36.712.565-5.094 4.803-69.803 4.709-70.841-.094-1.037-27.836-9.143-27.836-9.143s-21.326 1.591-25.607-2.415z" fill="#114F82"/><path fill-rule="evenodd" clip-rule="evenodd" d="M169.759 176.807c.521-7.319 1.249-18.035 1.939-28.512-5.198-.012-21.407.535-21.407.535l-.471 29.619 19.939-1.642z" fill="#082E4D"/><path d="M262.067 217.312H148.879v5.094h113.188v-5.094z" fill="#546C80"/><path fill-rule="evenodd" clip-rule="evenodd" d="M208.389 157.885h74.391l-20.71 59.427h-74.398l20.717-59.427z" fill="#3D5263"/><path fill-rule="evenodd" clip-rule="evenodd" d="M129.763 125.53l5.179 10.798-6.309 81.55 11.111 12.734 7.44-15.187s-3.296-78.575-4.144-80.556c-.847-1.981 1.036-11.131 1.036-11.131l-7.477-1.484-6.836 3.276z" fill="#fff"/><path fill-rule="evenodd" clip-rule="evenodd" d="M136.433 135.65a.438.438 0 0 1-.621.056.44.44 0 0 1-.057-.622c.007-.007 1.325-1.635 3.277-1.994 1.928-.358 3.208.246 3.215.246a.452.452 0 0 1 .213.591.45.45 0 0 1-.59.213s-1.023-.484-2.674-.176c-1.639.302-2.763 1.679-2.763 1.686z" fill="#B8B8D1"/><path d="M292.883 25.63H180.824v82.098h112.059V25.631z" fill="#010508"/><path d="M292.883 25.63H180.824v10.786h112.059V25.63z" fill="#3D5263"/><path fill-rule="evenodd" clip-rule="evenodd" d="M190.571 29.906c.766 0 1.387.623 1.387 1.39 0 .767-.621 1.39-1.387 1.39a1.389 1.389 0 0 1-1.387-1.39c0-.767.621-1.39 1.387-1.39zm12.669 0a1.39 1.39 0 0 1 0 2.78 1.39 1.39 0 0 1 0-2.78zm-6.335 0a1.39 1.39 0 0 1 0 2.78 1.389 1.389 0 0 1-1.387-1.39c0-.767.621-1.39 1.387-1.39zm3.029 17.05a.448.448 0 0 1-.446-.447c0-.245.201-.447.446-.447H213.4c.245 0 .446.202.446.447a.448.448 0 0 1-.446.447h-13.466zm17.66 0a.448.448 0 0 1-.446-.447c0-.245.201-.447.446-.447h5.393c.245 0 .446.202.446.447a.448.448 0 0 1-.446.447h-5.393zm9.016 0a.448.448 0 0 1-.446-.447c0-.245.201-.447.446-.447h9.931c.245 0 .446.202.446.447a.448.448 0 0 1-.446.447h-9.931zm-15.891 7.193a.448.448 0 0 1-.446-.447c0-.245.201-.446.446-.446h17.327c.245 0 .446.201.446.446a.448.448 0 0 1-.446.447h-17.327zm22.508 0a.448.448 0 0 1-.446-.447c0-.245.201-.446.446-.446h17.327c.244 0 .445.201.445.446a.448.448 0 0 1-.445.447h-17.327zm-5.23 6.365a.448.448 0 0 1-.446-.446c0-.246.201-.447.446-.447h7.765c.245 0 .446.201.446.447a.448.448 0 0 1-.446.446h-7.765zM224.7 77.166a.448.448 0 0 1-.446-.446c0-.245.201-.447.446-.447h2.8a.448.448 0 0 1 0 .893h-2.8zm6.992 0a.448.448 0 0 1-.446-.446c0-.245.201-.447.446-.447h6.485a.447.447 0 0 1 0 .893h-6.485zm-13.086 7.616a.448.448 0 0 1-.446-.447c0-.245.201-.446.446-.446h17.245c.245 0 .446.2.446.446a.448.448 0 0 1-.446.447h-17.245zm-11.77 10.513a.447.447 0 0 1 0-.893h11.734a.448.448 0 0 1 0 .893h-11.734zm16.41 0a.448.448 0 0 1-.445-.446c0-.245.201-.447.445-.447h3.447c.245 0 .446.202.446.447a.448.448 0 0 1-.446.446h-3.447zm7.668 0a.448.448 0 0 1-.445-.446c0-.245.201-.447.445-.447h3.447c.245 0 .446.202.446.447a.448.448 0 0 1-.446.446h-3.447z" fill="#fff"/><path fill-rule="evenodd" clip-rule="evenodd" d="M48.3 40.393h36.631c2.85 0 5.18 2.333 5.18 5.188v25.657c0 2.855-2.33 5.188-5.18 5.188h-36.63c-2.85 0-5.18-2.333-5.18-5.188V45.58c0-2.855 2.33-5.188 5.18-5.188z" fill="#082E4D"/><path fill-rule="evenodd" clip-rule="evenodd" d="M64.072 70.734H59.71c-.728 0-1.35-.466-1.858-1.39-.508-.93-.766-2.038-.766-3.327v-4.194c0-.309-.056-.56-.176-.755-.119-.201-.257-.302-.408-.302h-1.895v-4.722H56.5c.157 0 .295-.101.408-.302.12-.202.176-.453.176-.755v-4.194c0-1.29.258-2.403.766-3.327.509-.93 1.13-1.39 1.858-1.39h4.363v4.968H61.31c-.17 0-.308.107-.42.315a1.557 1.557 0 0 0-.164.742v3.697c0 .705-.213 1.315-.646 1.83-.433.516-.848.774-1.256.774.402 0 .823.258 1.256.773.433.516.646 1.126.646 1.83v3.698c0 .283.057.528.163.742.113.214.252.314.421.314h2.762v4.975zm9.455 0h-4.363v-4.968h2.762c.17 0 .308-.107.42-.315.114-.214.17-.459.17-.742v-3.698c0-.704.213-1.314.647-1.83.433-.515.847-.773 1.255-.773-.402 0-.822-.258-1.255-.773-.433-.516-.647-1.126-.647-1.83v-3.698a1.56 1.56 0 0 0-.17-.742c-.112-.214-.25-.315-.42-.315h-2.762v-4.967h4.363c.728 0 1.35.465 1.858 1.39.508.93.766 2.037.766 3.326v4.194c0 .308.056.56.176.755.119.201.257.302.408.302h1.896v4.723h-1.896c-.157 0-.295.1-.408.301-.12.202-.176.453-.176.755v4.194c0 1.29-.257 2.403-.766 3.327-.509.918-1.13 1.384-1.858 1.384z" fill="#fff"/><path fill-rule="evenodd" clip-rule="evenodd" d="M209.106 140.931a.447.447 0 0 1-.445.446.448.448 0 0 1-.446-.446v-14.766c0-.245.201-.446.446-.446h9.561a.447.447 0 0 1 0 .893h-9.116v14.319z" fill="#ED1B2E"/><path fill-rule="evenodd" clip-rule="evenodd" d="M213.951 122.568a.445.445 0 0 1 .622-.635l3.955 3.912a.445.445 0 0 1 .012.622l-4.237 4.478a.452.452 0 0 1-.628.019.447.447 0 0 1-.013-.629l3.937-4.163-3.648-3.604zm7.755 6.101c0-.245.2-.446.445-.446s.446.201.446.446v14.766a.448.448 0 0 1-.446.446h-9.561a.447.447 0 0 1 0-.893h9.116v-14.319z" fill="#ED1B2E"/><path fill-rule="evenodd" clip-rule="evenodd" d="M216.858 147.026a.445.445 0 0 1-.621.635l-3.955-3.911a.445.445 0 0 1-.013-.623l4.238-4.477a.445.445 0 0 1 .64.616l-3.936 4.163 3.647 3.597z" fill="#ED1B2E"/><path fill-rule="evenodd" clip-rule="evenodd" d="M149.852 166.306s.282 4.905 1.086 7.874c.803 2.974 2.26 4.955 2.26 4.955l8.45-2.572s3.013 1.459 5.624 2.119c2.612.66 6.052.686 6.052.686s6.19 5.779 7.345 5.471c1.155-.308 1.25-.849 0-2.497-1.249-1.648-3.911-5.823-3.911-5.823s6.523 4.955 8.902 4.339c2.379-.616.377-2.736.377-2.736s-1.576-4.15-2.141-6.37c-.565-2.22-.797-3.113-.797-3.113s7.276 3.327 8.732 2.333c1.457-.987.898-1.723-.916-2.685-1.815-.962-5.085-3.345-6.919-4.93-1.839-1.578-19.184-2.409-21.966-1.604-2.781.805-9.498 4.151-12.178 4.553z" fill="#C57456"/><path fill-rule="evenodd" clip-rule="evenodd" d="M169.518 174.449a.444.444 0 0 1-.32-.541.442.442 0 0 1 .54-.321c.006 0 2.913.748 4.395 1.276a21.358 21.358 0 0 1 2.85 1.277c.213.12.289.396.163.61a.443.443 0 0 1-.609.164c-.006 0-1.281-.705-2.706-1.208-1.431-.522-4.306-1.257-4.313-1.257zm1.903-3.961a.441.441 0 0 1-.452-.434.442.442 0 0 1 .433-.452c.019 0 6.41-.145 7.521.679.59.434 1.507 1.597 2.423 2.767.747.949 1.5 1.905 2.022 2.408 1.173 1.126 2.894 2.296 2.9 2.296a.438.438 0 0 1 .125.616.438.438 0 0 1-.615.126c-.006-.007-1.802-1.22-3.026-2.403-.571-.553-1.337-1.528-2.103-2.496-.885-1.126-1.764-2.245-2.253-2.604-.86-.641-6.956-.503-6.975-.503zm2.888-4a.443.443 0 1 1-.044-.886c.019 0 6.793-.359 7.828.138 1.168.553 1.438 2.842 1.438 2.849a.445.445 0 1 1-.885.107c0-.007-.22-1.812-.936-2.151-.841-.403-7.382-.057-7.401-.057z" fill="#B96253"/><path fill-rule="evenodd" clip-rule="evenodd" d="M80.45 121.499s6.592.095 9.794 8.018c3.201 7.924 15.537 46.315 15.537 46.315s32.111-11.036 33.618-10.47c1.507.566 2.825 1.465 2.825 1.465s8.475-2.874 9.04-2.308c.565.566 1.08 7.213 2.543 10.609 1.462 3.396 2.26 5.094 2.26 5.094l-10.051 5.496s.333.968-.942 2.126c-1.274 1.157-47.435 27.613-54.12 27.757-6.687.139-9.135-4.295-12.525-21.085-3.39-16.791-7.866-63.389-5.983-67.539 1.884-4.157 4.897-5.949 8.005-5.478z" fill="#082E4D"/><path fill-rule="evenodd" clip-rule="evenodd" d="M142.226 166.827s8.475-2.874 9.04-2.308c.565.566 1.079 7.213 2.542 10.609 1.463 3.396 2.26 5.094 2.26 5.094l-10.051 5.496c-5.769-5.213-3.791-18.891-3.791-18.891z" fill="#114F82"/><path fill-rule="evenodd" clip-rule="evenodd" d="M104.216 170.984c.967 2.987 1.563 4.849 1.563 4.849s-7.677 5.188-8.757 5.188c-.86 0 4.79-7.075 7.194-10.037z" fill="#061827"/><path d="M313.815 222.406H56.551v44.196h257.264v-44.196z" fill="#3D5263"/><path fill-rule="evenodd" clip-rule="evenodd" d="M120.332 103.301l-2.373.371s-2.712 1.113-6.736 2.798c1.444 3.421 4.746 10.98 7.32 14.847 3.39 5.094 8.286 10.188 8.286 10.188l9.769-9.244 11.23 6.458s3.014-15.614 2.92-21.582c-2.863-.855-4.815-1.428-4.815-1.428s-21.32 1.598-25.601-2.408z" fill="#082E4D"/><path fill-rule="evenodd" clip-rule="evenodd" d="M118.661 72.537l-2.743 2.163s-2.355.277-1.764 3.46c.59 3.181 4.708 6.722 4.708 6.722l.785 13.482-1.689 5.308s3.767 7.389 8.318 11.866c4.551 4.484 10.321 6.723 10.321 6.723s3.415-1.805 6.001-8.175c2.587-6.364 3.334-8.371 3.334-8.371l-.785-3.339s4.865-10.848 7.847-19.337c2.982-8.49 4.005-14.935 4.005-14.935s-14.985-9.83-25.111-6.446c-10.126 3.377-13.227 10.88-13.227 10.88z" fill="#C57456"/><path fill-rule="evenodd" clip-rule="evenodd" d="M125.454 84.315s.157-4.792.867-4.873c.709-.076 1.801-.39 1.801-.39s-.86-5.893 0-9.194c.867-3.302 3.767-6.685 3.767-6.685s.59 2.283 3.258 1.258 5.926-.868 6.397-.472c.471.396 3.259 8.414 9.335 8.565 6.084.157 9.769-5.993 10.045-7.194.276-1.201-.057-3.2-.057-3.2s.999-.554 2.336-3.302c1.331-2.748 1.293-4.95 1.293-4.95s-8.124 1.969-9.888.076c-1.764-1.887-10.126-11.791-14.715-13.011-4.589-1.22-6.943-.314-7.301-.352-.351-.038-3.729 1.377-4.947 2.32-1.218.944-5.261 5.421-6.158 7.427-.904 2.006-.747 3.22-.747 3.22s-7.458 6.446-8.004 8.093c-.553 1.654 3.176 13.049 3.176 13.049s6.196 1.1 7.69 3.653c1.494 2.56.396 4.604 1.852 5.962zm-5.805 14.05s2.9-9.747 2.668-10.257c-.239-.509-3.453-3.22-3.453-3.22s-.785 13.238.785 13.477z" fill="#010508"/><path fill-rule="evenodd" clip-rule="evenodd" d="M145.62 104.369l-.414-1.773s-7.351 1.899-9.429 1.113c-2.078-.786-8.513-7.741-8.946-8.842-.433-1.1-.553-2.119-.553-2.119s-.979.981 1.024 4.635c2.002 3.653 7.1 8.885 8.669 8.923 1.225.025 7.132-1.339 9.649-1.937z" fill="#30242A"/><path fill-rule="evenodd" clip-rule="evenodd" d="M116.907 79.179a.437.437 0 0 1-.508.365.438.438 0 0 1-.365-.51c0-.006.534-3.207 3.045-1.849 1.199.648 2.624 2.805 3.403 4.578.257.585.446 1.139.54 1.591.113.56.075 1.007-.164 1.27a.716.716 0 0 1-.445.233c-1.356.183-2.524-.71-2.524-.716a.443.443 0 1 1 .54-.705s.829.635 1.783.554c.006-.076-.019-.233-.063-.447-.082-.384-.251-.874-.483-1.409-.716-1.635-1.99-3.603-3.014-4.156-1.418-.78-1.745 1.195-1.745 1.2zm29.285 3.27a.445.445 0 0 1 .615-.126.451.451 0 0 1 .125.616s-.383.598-.044 3.918c.182 1.786.176 2.98.025 3.698-.219 1.012-.709 1.314-1.418 1.094-.973-.302-2.066-1.849-2.072-1.849a.444.444 0 1 1 .716-.528c0 .006.941 1.32 1.619 1.528.12.038.214-.088.289-.428.138-.635.132-1.735-.038-3.427-.376-3.635.183-4.49.183-4.496zm-7.317 9.408c0-.246.201-.447.446-.447s.445.201.445.447c0 .006-.012 2.069.754 2.402.916.396 2.034.201 2.034.201a.437.437 0 0 1 .502.377.438.438 0 0 1-.377.504c-.006 0-1.349.239-2.517-.27-1.312-.567-1.287-3.208-1.287-3.214z" fill="#B96253"/><path fill-rule="evenodd" clip-rule="evenodd" d="M143.655 77.543c.131.069.257.138.376.214l.025.018c.98.654 1.532 1.73 1.664 3 .126 1.233-.157 2.654-.86 4.063-.176.345-.37.691-.596 1.037-1.068 1.623-2.524 2.855-4.012 3.528-1.532.698-3.12.811-4.388.176a5.228 5.228 0 0 1-.377-.214l-.025-.019c-.979-.654-1.532-1.729-1.664-3-.125-1.232.157-2.66.861-4.062.175-.346.37-.691.596-1.037 1.067-1.623 2.524-2.855 4.011-3.528 1.538-.698 3.12-.811 4.389-.176zm-.113.956a3.422 3.422 0 0 0-.283-.164c-1.017-.51-2.323-.396-3.622.189-1.344.61-2.662 1.73-3.635 3.207a9.166 9.166 0 0 0-.546.943c-.628 1.252-.879 2.51-.772 3.578.1 1.013.533 1.85 1.274 2.352l.025.013c.094.063.188.113.283.163 1.017.51 2.322.397 3.622-.188 1.343-.61 2.662-1.73 3.635-3.207.207-.315.389-.63.546-.944.628-1.251.879-2.509.772-3.578-.1-1.012-.534-1.849-1.274-2.352l-.025-.012zm12.628-2.427c.132.07.258.138.377.214l.025.019c.973.654 1.532 1.73 1.664 3 .125 1.232-.157 2.66-.86 4.062a11.04 11.04 0 0 1-.597 1.037c-1.067 1.623-2.524 2.855-4.011 3.528-1.532.698-3.12.811-4.389.176a5.468 5.468 0 0 1-.376-.214l-.025-.018c-.98-.654-1.532-1.73-1.664-3-.125-1.233.157-2.654.86-4.062.176-.346.371-.692.597-1.038 1.067-1.623 2.523-2.855 4.011-3.528 1.538-.698 3.12-.811 4.388-.176zm-.119.956a3.122 3.122 0 0 0-.283-.164c-1.017-.509-2.322-.396-3.622.19-1.343.61-2.662 1.728-3.635 3.206a9.156 9.156 0 0 0-.546.944c-.628 1.25-.879 2.509-.772 3.578.1 1.012.534 1.849 1.274 2.352l.025.012c.095.063.189.113.283.164 1.017.51 2.323.396 3.622-.189 1.344-.61 2.662-1.73 3.635-3.207a9.26 9.26 0 0 0 .546-.943c.628-1.252.879-2.51.772-3.579-.1-1.012-.533-1.848-1.274-2.352l-.025-.012z" fill="#30242A"/><path fill-rule="evenodd" clip-rule="evenodd" d="M145.139 83.379a.444.444 0 1 1-.069-.887l1.814-.15a.444.444 0 1 1 .069.887l-1.814.15z" fill="#30242A"/><path fill-rule="evenodd" clip-rule="evenodd" d="M137.716 76.99a1.327 1.327 0 0 1-1.783-.597 1.33 1.33 0 0 1 .596-1.786c.006 0 1.846-.925 3.842-1.333 1.978-.403 2.386-.403 2.386-.403a1.34 1.34 0 0 1 0 2.679s-.182 0-1.852.34c-1.664.34-3.183 1.1-3.189 1.1zm14.817-1.925a1.337 1.337 0 0 1-.521-2.622c.006 0 2.147-.403 3.252-.12 1.004.252 1.808.724 1.814.724a1.332 1.332 0 1 1-1.368 2.289s-.44-.252-1.093-.422c-.552-.138-2.084.151-2.084.151z" fill="#000"/><path fill-rule="evenodd" clip-rule="evenodd" d="M140.436 81.876c.64.364.69 1.471.119 2.471s-1.551 1.51-2.191 1.138c-.64-.364-.691-1.471-.119-2.471.571-.994 1.55-1.51 2.191-1.138zm11.457-.981c.64.364.69 1.471.119 2.471s-1.551 1.51-2.191 1.138c-.64-.365-.691-1.471-.119-2.471.571-1 1.55-1.51 2.191-1.138zm-31.225-4.162a.448.448 0 0 1-.201-.598.447.447 0 0 1 .597-.201l13.867 6.892a.446.446 0 0 1-.395.799l-13.868-6.892z" fill="#30242A"/><path d="M313.814 222.406H148.871v44.196h164.943v-44.196z" fill="#010508"/><path d="M355.004 58.57H242.945v84.896h112.059V58.57z" fill="#fff"/><path d="M290.404 67.814h-38.42v32.449h38.42V67.814z" fill="#92AED0"/><path fill-rule="evenodd" clip-rule="evenodd" d="M255.656 91.585h30.887l-8.808-9.483-5.65 4.672-7.156-8.678-9.273 13.489z" fill="#6A7FB1"/><path d="M273.431 78.046a2.425 2.425 0 0 0 2.423-2.427 2.425 2.425 0 0 0-2.423-2.428 2.425 2.425 0 0 0-2.423 2.428 2.425 2.425 0 0 0 2.423 2.427z" fill="#fff"/><path fill-rule="evenodd" clip-rule="evenodd" d="M260.788 115.116h20.246v2.736h-20.246v-2.736zm-4.288-7.452h28.815v2.736H256.5v-2.736z" fill="#92AED0"/><path fill-rule="evenodd" clip-rule="evenodd" d="M252.45 123.631a.448.448 0 0 1-.446-.446c0-.246.201-.447.446-.447h36.725a.447.447 0 0 1 0 .893H252.45zm5.367 6.133a.448.448 0 0 1-.446-.446c0-.246.201-.447.446-.447h25.99c.245 0 .446.201.446.447a.448.448 0 0 1-.446.446h-25.99z" fill="#C3D0DB"/><path fill-rule="evenodd" clip-rule="evenodd" d="M264.407 135.895a.448.448 0 0 1-.446-.447c0-.245.201-.446.446-.446h12.806c.245 0 .446.201.446.446a.448.448 0 0 1-.446.447h-12.806z" fill="#fff"/><path d="M318.699 67.814h-20.008v16.98h20.008v-16.98z" fill="#C3D0DB"/><path fill-rule="evenodd" clip-rule="evenodd" d="M326.293 74.053a.448.448 0 0 1-.445-.446c0-.246.201-.447.445-.447h19.637c.245 0 .446.201.446.447a.448.448 0 0 1-.446.446h-19.637z" fill="#92AED0"/><path fill-rule="evenodd" clip-rule="evenodd" d="M326.274 80.184a.448.448 0 0 1-.446-.447c0-.245.201-.446.446-.446h11.676c.245 0 .446.201.446.447a.448.448 0 0 1-.446.446h-11.676z" fill="#C3D0DB"/><path d="M318.699 91.02h-20.008v16.979h20.008v-16.98z" fill="#C3D0DB"/><path fill-rule="evenodd" clip-rule="evenodd" d="M326.293 97.258a.448.448 0 0 1-.445-.446c0-.245.201-.447.445-.447h12.148c.245 0 .446.202.446.447a.448.448 0 0 1-.446.446h-12.148z" fill="#92AED0"/><path fill-rule="evenodd" clip-rule="evenodd" d="M326.274 103.389a.448.448 0 0 1-.446-.446c0-.246.201-.447.446-.447h19.605c.245 0 .446.201.446.447a.448.448 0 0 1-.446.446h-19.605z" fill="#C3D0DB"/><path fill-rule="evenodd" clip-rule="evenodd" d="M350.254 206.618l64.508-2.098s3.841 14.842 1.472 29.901c-2.362 15.058-6.203 33.23-6.203 33.23h-62.454s-7.991-33.021 2.677-61.033z" fill="#082E4D"/><path fill-rule="evenodd" clip-rule="evenodd" d="M443.688 119.795l14.509-29.642s-2.467-4.197-4.626-4.882c-2.152-.678-3-3.252-3.785-5.931-.785-2.68-1.893-6.386-2.208-7.617-.316-1.231 1.521-1.091 2.432.077.904 1.168 4.143 5.966 5.587 7.75 1.443 1.783 2.6 2.252 2.761 0 .161-2.26 1.949-15.556 2.18-18.15.238-2.596 1.682-4.253 2.706-2.176 1.023 2.07-.077 20.382.736 20.172.813-.21 4.311-17.15 5.839-17.626 1.528-.476 1.738 1.497 1.366 3.93-.371 2.435-2.677 14.087-1.864 13.794.813-.287 6.175-15.899 8.068-14.85 1.892 1.05-4.388 15.87-4.129 16.5.267.63 6.652-8.63 7.626-7.582.975 1.05-.707 3.931-1.184 5.036-.47 1.105-11.068 15.052-11.068 15.052l-6.778 32.734-18.168-6.589z" fill="#83503A"/><path fill-rule="evenodd" clip-rule="evenodd" d="M443.688 119.796l1.962-4.001c4.213-.056 13.178.203 17.776 3.064l-1.563 7.554-18.175-6.617z" fill="#000" fill-opacity=".2"/><path fill-rule="evenodd" clip-rule="evenodd" d="M435.909 126.567s3.995-8.974 5.888-9.232c1.892-.266 10.198.573 17.769 4.042 7.57 3.47 8.257 5.197 8.257 6.456 0 1.259-2.468 8.498-4.101 10.023-1.626 1.525-4.36 1.994-4.36 1.994l.947-4.673s-14.615-3.196-18.877-2.413c-4.262.777-8.362-.063-5.523-6.197z" fill="#F7961C"/><path fill-rule="evenodd" clip-rule="evenodd" d="M455.732 146.236l2.523-1.049.946-5.246.197-.315.904-4.462s-14.615-3.197-18.877-2.413c-.42.076-.834.139-1.247.181l-.119 7.428 15.673 5.876z" fill="#B76B00"/><path fill-rule="evenodd" clip-rule="evenodd" d="M375.157 58.763s-3.26 15.003-4.15 22.767c-.89 7.764-.841 15.394.785 16.605 1.633 1.21 10.122.629 10.122.629l-1.339 7.946 17.664-3.623-.631-9.023c-.007.007 7.878-39.651-22.451-35.3z" fill="#83503A"/><path fill-rule="evenodd" clip-rule="evenodd" d="M373.695 98.694c3.042.42 8.215.07 8.215.07s.715-2.86.61-3.07c-.091-.197-6.028 2.622-8.825 3z" fill="#30242A"/><path fill-rule="evenodd" clip-rule="evenodd" d="M381.061 103.807l-.491 2.903 17.664-3.623-.231-3.337c-5.11-.447-13.592 2.7-16.942 4.057z" fill="#000" fill-opacity=".2"/><path fill-rule="evenodd" clip-rule="evenodd" d="M371.935 75.234c-2.327 3.001-6.463 8.547-5.51 8.813.82.231 2.825.805 4.22 1.203.091-1.217.21-2.469.358-3.72.21-1.798.539-3.995.932-6.296z" fill="#8A5D4A"/><path fill-rule="evenodd" clip-rule="evenodd" d="M375.523 54.308s.078 10.75 1.339 16.366c1.262 5.617 3.729 7.66 3.729 7.66s3.841-9.023 7.521-6.505c3.68 2.518-3.946 13.037-3.946 13.037s3.337 9.079 6.021 10.883c2.685 1.812 5.468 1.47 7.15.63 1.682-.84 10.255-6.295 14.04-21.193 3.785-14.898 3.364-19.095 2.046-21.04-1.317-1.944-12.252-6.35-23.656-4.986-11.405 1.37-14.244 5.148-14.244 5.148z" fill="#000"/><path fill-rule="evenodd" clip-rule="evenodd" d="M384.413 80.943a.504.504 0 0 1-.484.51.504.504 0 0 1-.512-.482c0-.014-.168-4.826 1.935-6.61 2.993-2.539 2.257 1.28 2.25 1.287a.504.504 0 0 1-.582.392.503.503 0 0 1-.392-.58s.203-1.057-.638-.336c-1.732 1.462-1.577 5.805-1.577 5.819z" fill="#5C3728"/><path fill-rule="evenodd" clip-rule="evenodd" d="M376.083 110.333s.68-3.937 1.101-3.986c.42-.049 15.561-4.148 19.108-4.358 3.546-.21 4.282-.21 4.282-.21l.267 6.477s21.371-2.336 20.53 3.015c-.841 5.35-6.939 46.163-6.939 58.438 0 12.275 2.839 34.727.841 35.671-1.998.944-61.192 3.043-64.136 2.833-2.944-.21-7.045-.42-3.89-9.652 3.154-9.233 7.57-28.118 7.57-28.118s-12.197-11.646-5.678-25.599c6.519-13.954 8.937-33.049 11.355-33.21 2.419-.147 15.589-1.301 15.589-1.301z" fill="#F7961C"/><path fill-rule="evenodd" clip-rule="evenodd" d="M376.082 110.333s.68-3.937 1.101-3.986c.42-.049 15.56-4.148 19.107-4.358 3.547-.21 4.283-.21 4.283-.21l.266 6.477-24.757 2.077zm-15.929 45.373s2.313-20.459 1.893-30.531c-.421-10.072-.365-15.212-4.311-12.953-3.947 2.259-28.963 31.209-32.433 36.671-3.47 5.456-6.939 8.659-6.939 8.659l-5.208-3.833-10.991 22.613s11.04 12.066 14.51 9.862c3.476-2.21 36.911-28.754 43.479-30.488z" fill="#B76B00"/><path fill-rule="evenodd" clip-rule="evenodd" d="M281.351 135.876s15.35 34.832 16.086 34.985c.736.161 12.673-21.668 12.673-21.668l-15.82-25.648s-.631-13.535-2.054-15.213c-1.423-1.679-5.362-.21-5.362-.21s-6.47-8.344-8.755-10.834c-2.285-2.49-6.469-4.798-6.624-2.651-.154 2.154 4.809 7.896 6.204 9.68 1.395 1.784 3.336 6.085 3.336 6.085s-6.308-1.783-6.988-.238c-.687 1.546.603 5.456.603 5.456s-3.708-.602-4.129 1.203c-.42 1.811 1.759 5.875 1.759 5.875s-5.439-1.629-4.444 2.203c1.003 3.84 11.517 11.212 13.515 10.975z" fill="#83503A"/><path fill-rule="evenodd" clip-rule="evenodd" d="M294.41 164.897c1.647 3.525 2.839 5.924 3.028 5.966.736.161 12.673-21.669 12.673-21.669l-.75-1.21c-5.776 1.378-12.638 12.786-14.951 16.913z" fill="#000" fill-opacity=".2"/><path fill-rule="evenodd" clip-rule="evenodd" d="M413.618 151.433s28.865 21.773 34.543 18.78c5.677-2.994 10.093-25.026 10.093-25.026s-17.243-14.849-22.444-20.879c-5.208-6.029-13.248-15.842-16.668-14.009-3.421 1.839-7.157 31.376-5.524 41.134z" fill="#B76B00"/><path fill-rule="evenodd" clip-rule="evenodd" d="M377.716 53.105a.499.499 0 0 1-.497-.497c0-.273.224-.497.497-.497.021 0 7.241-.111 14.068 7.394 6.722 7.392 9.582 13.051 9.589 13.065a.491.491 0 0 1-.217.665.493.493 0 0 1-.666-.217c-.007-.014-2.804-5.554-9.442-12.849-6.525-7.176-13.318-7.064-13.332-7.064z" fill="#E7E7E7" fill-opacity=".1"/><path fill-rule="evenodd" clip-rule="evenodd" d="M375.788 65.583a.495.495 0 0 1 .554-.819c.021.014 7.073 4.812 13.528 6.344 6.505 1.539 10.858 1.749 10.865 1.749a.504.504 0 0 1 .476.517.504.504 0 0 1-.518.476c-.014 0-4.472-.21-11.054-1.77-6.624-1.573-13.83-6.483-13.851-6.497zm13.198-15.836a.49.49 0 0 1-.427-.553.491.491 0 0 1 .554-.426c.021 0 7.31.86 10.521 8.68 3.112 7.582 3.848 9.946 3.855 9.953a.496.496 0 0 1-.33.622.496.496 0 0 1-.623-.328c0-.007-.729-2.35-3.82-9.876-2.993-7.282-9.716-8.072-9.73-8.072zm16.208 1.091a.494.494 0 1 1 .603-.783c.014.013 5.012 3.846 5.096 8.882.084 4.945-.981 6.652-.988 6.659a.503.503 0 0 1-.68.182.5.5 0 0 1-.182-.679c0-.007.932-1.49.855-6.14-.07-4.561-4.697-8.114-4.704-8.121zm6.412 16.256a.498.498 0 0 1-.631-.77c0 .001.652-.489 1.661-3.42 1.031-3 1.15-6.21 1.15-6.217a.498.498 0 0 1 .512-.476.497.497 0 0 1 .476.51c0 .008-.126 3.358-1.198 6.498-1.101 3.21-1.97 3.875-1.97 3.875zM386.151 82.46a.49.49 0 0 1-.582-.385.49.49 0 0 1 .386-.58c.021-.007 7.352-1.448 10.317-3.393 3.043-1.993 3.996-2.734 4.003-2.741a.502.502 0 0 1 .694.105.5.5 0 0 1-.105.692s-.989.776-4.045 2.77c-3.126 2.05-10.647 3.525-10.668 3.532zm1.876 11.128a.494.494 0 1 1-.049-.986c.007 0 3.344-.14 8.355-5.757 5.047-5.651 5.236-8.078 5.243-8.085a.494.494 0 0 1 .982.098c0 .007-.225 2.755-5.482 8.645-5.292 5.917-9.035 6.085-9.049 6.085zm11.798 1.687a.503.503 0 0 1-.659.237.502.502 0 0 1-.238-.657c.007-.014 2.916-6.03 4.317-11.114 1.395-5.043 1.325-5.42 1.325-5.42a.496.496 0 0 1 .435-.553.497.497 0 0 1 .554.433s.091.567-1.353 5.806c-1.437 5.182-4.374 11.254-4.381 11.268z" fill="#E7E7E7" fill-opacity=".1"/><path fill-rule="evenodd" clip-rule="evenodd" d="M407.542 147.802a.496.496 0 1 1 .413-.902c.014.007 4.872 2.077 1.619 7.239-1.423 2.259-2.201 3.938-2.229 5.092-.021.972.596 1.56 1.928 1.819 3.105.601 7.991-1.007 8.005-1.007a.494.494 0 1 1 .308.937c-.014.007-5.145 1.692-8.502 1.042-1.893-.371-2.769-1.28-2.727-2.812.035-1.35.862-3.189 2.376-5.595 2.629-4.183-1.184-5.806-1.191-5.813z" fill="#000"/><path d="M302.975 36.134c7.811-3.212 11.533-12.133 8.315-19.926-3.219-7.793-12.159-11.508-19.969-8.296-7.81 3.211-11.532 12.132-8.314 19.926 3.218 7.793 12.158 11.507 19.968 8.296z" fill="#018B7C"/><path d="M287.499 22.405l3.797 3.79a.397.397 0 0 0 .56 0l.802-.801a.395.395 0 0 0 0-.559l-3.798-3.789a.396.396 0 0 0-.559 0l-.802.8a.394.394 0 0 0 0 .56z" fill="#fff"/><path d="M288.86 23.206l3.798-3.79a.395.395 0 0 0 0-.558l-.802-.8a.397.397 0 0 0-.56 0l-3.797 3.788a.394.394 0 0 0 0 .56l.802.8a.396.396 0 0 0 .559 0zm17.575-.801l-3.797 3.79a.397.397 0 0 1-.56 0l-.802-.801a.395.395 0 0 1 0-.559l3.798-3.789a.396.396 0 0 1 .559 0l.802.8a.394.394 0 0 1 0 .56z" fill="#fff"/><path d="M305.074 23.206l-3.798-3.79a.395.395 0 0 1 0-.558l.802-.8a.397.397 0 0 1 .56 0l3.797 3.788a.394.394 0 0 1 0 .56l-.802.8a.396.396 0 0 1-.559 0zm-5.611-9.647h-1.442a.401.401 0 0 0-.391.316l-3.452 16.459a.3.3 0 0 0 .293.36h1.442a.4.4 0 0 0 .391-.316l3.452-16.459a.299.299 0 0 0-.293-.36z" fill="#fff"/><path fill-rule="evenodd" clip-rule="evenodd" d="M411.825 67.234s-.133-4.722-5.075-3.28c-4.942 1.44-7.283 8.917-6.547 12.638.736 3.728 4.367 5.407 7.101 1.784 2.733-3.61 5.068-7.254 4.521-11.142z" fill="#fff"/><path fill-rule="evenodd" clip-rule="evenodd" d="M410.302 66.947s-3.862 2.022-5.649 4.98c-1.788 2.966-2.524 6.19-1.998 6.82.526.63 5.573 14.296 1.052 26.467-4.522 12.17-17.139 24.55-17.139 24.55s-10.093 9.442 1.578 14.268c11.67 4.826 10.198 10.177 4.941 13.954-5.257 3.777-6.308 11.856 4.942 11.856s21.344-6.666 21.133-8.603c-.21-1.938-7.409 1.154-4.044-3.568 3.364-4.721 6.596-8.134 3.315-9.498-3.287-1.364-17.769 1.287-11.881-5.064 5.888-6.344 15.772-13.163 23.447-33.307 7.668-20.137-4.738-35.665-19.697-42.855z" fill="#000"/><path fill-rule="evenodd" clip-rule="evenodd" d="M403.16 74.319a.501.501 0 0 1 .119-.693.503.503 0 0 1 .694.12c.042.062 15.043 21.038 8.468 36.615-6.505 15.415-13.556 21.92-13.577 21.941a.122.122 0 0 1-.05.035c-.392.336-5.474 4.784-1.156 7.911 2.607 1.888 4.051 3.973 4.451 6.386.392 2.385-.252 5.056-1.83 8.141-1.465 2.868-2.011 5.078-1.465 6.645.533 1.517 2.166 2.483 5.096 2.923 6.134.924 14.229-2.126 14.257-2.133.26-.098.54.035.638.294a.491.491 0 0 1-.294.636c-.021.007-8.369 3.148-14.748 2.19-3.329-.504-5.215-1.686-5.881-3.582-.645-1.846-.07-4.308 1.514-7.414 1.479-2.895 2.089-5.371 1.732-7.533-.351-2.14-1.669-4.014-4.052-5.742-5.32-3.861.673-9.1 1.108-9.463l.007-.007c.021-.021 6.918-6.386 13.339-21.599 6.35-15.073-8.335-35.608-8.37-35.671z" fill="#E7E7E7" fill-opacity=".1"/><path fill-rule="evenodd" clip-rule="evenodd" d="M405.881 68.743a.492.492 0 1 1 .631-.755c.035.028 11.468 9.428 15.771 22.627 1.865 5.714 2.433 11.736 2.25 17.108-.238 7.057-1.78 13.03-3.399 15.765-2.811 4.756-8.958 14.688-8.979 14.716a.5.5 0 0 1-.68.161.495.495 0 0 1-.161-.678c.021-.028 6.203-10.009 8.965-14.695 1.549-2.616 3.028-8.408 3.259-15.297.182-5.274-.379-11.177-2.201-16.773-4.213-12.932-15.421-22.15-15.456-22.179z" fill="#E7E7E7" fill-opacity=".1"/><path fill-rule="evenodd" clip-rule="evenodd" d="M295.386 173.75s7.465 8.078 7.837 7.918c.371-.154 4.682-10.856 7.57-16.206 2.888-5.351 6.624-9.499 6.575-10.072-.057-.574-5.937-8.394-6.673-8.443-.743-.056-16.515 16.997-15.309 26.803z" fill="#F7961C"/></g></svg>