<?xml version="1.0" encoding="utf-8"?>
<!-- Generator: Avocode 2.6.0 - http://avocode.com -->
<svg height="55" width="112" xmlns:xlink="http://www.w3.org/1999/xlink" xmlns="http://www.w3.org/2000/svg" viewBox="0 0 112 55">
    <path fill="#ffffff" fill-rule="evenodd" d="M 17.42 13.61 L 17.82 11.36 L 8.12 11.36 L 8.12 11.36 C 7.1 11.37 6.13 12.18 5.93 13.19 L 2.19 34.4 L 2.19 34.4 C 2 35.42 2.68 36.26 3.71 36.26 L 3.71 36.26 L 14.29 36.26 L 14.69 34.02 L 5.59 34.02 L 7.27 24.5 L 14.66 24.5 L 15.05 22.29 L 7.66 22.29 L 9.2 13.61 L 17.42 13.61 Z M 17.42 13.61" />
    <path fill="#ffffff" fill-rule="evenodd" d="M 22.2 36.63 C 17.92 36.63 15.45 32.8 16.56 26.5 C 17.69 20.09 21.49 16.4 25.84 16.4 C 28.23 16.4 29.4 17.16 29.93 17.7 L 28.84 19.55 C 28.33 19.11 27.55 18.61 26.1 18.61 C 22.55 18.61 20.61 21.83 19.8 26.39 C 18.98 31.06 20.08 34.28 23.23 34.28 C 24.57 34.28 25.55 33.84 26.37 33.34 L 26.81 35.33 C 25.93 36.02 24.37 36.63 22.2 36.63" />
    <path fill="#ffffff" fill-rule="evenodd" d="M 38.86 18.43 C 35.13 18.43 33.67 22.59 32.97 26.53 C 32.28 30.48 32.38 34.43 36.04 34.43 C 39.77 34.43 41.16 30.44 41.85 26.53 C 42.54 22.62 42.59 18.43 38.86 18.43 M 35.65 36.63 C 30.32 36.63 28.78 32.25 29.78 26.53 C 30.81 20.7 33.93 16.4 39.18 16.4 C 44.55 16.4 46.07 20.7 45.04 26.53 C 44.03 32.25 40.94 36.63 35.65 36.63" />
    <path fill="#ffffff" fill-rule="evenodd" d="M 74.6 25.19 C 69.57 25.81 66.45 26.86 65.75 30.8 C 65.25 33.63 66.79 34.79 69.69 34.79 C 70.92 34.79 72.15 34.57 73.03 34.13 L 74.6 25.19 Z M 69.11 36.63 C 64.04 36.63 62.07 34.43 62.7 30.88 C 63.61 25.7 68.73 24.18 74.89 23.56 L 75.1 22.37 C 75.63 19.37 73.98 18.5 71.48 18.5 C 69.59 18.5 67.73 19.19 66.55 19.73 L 66.12 17.85 C 67.35 17.23 69.67 16.4 72.35 16.4 C 75.98 16.4 78.89 17.95 78.05 22.73 L 75.84 35.26 C 74.2 36.09 71.83 36.63 69.11 36.63 L 69.11 36.63 Z M 69.11 36.63" />
    <path fill="#ffffff" fill-rule="evenodd" d="M 89.28 36.27 L 91.75 22.26 C 92.07 20.45 91.67 18.46 88.33 18.46 C 86.52 18.46 85.6 18.71 84.52 19.15 L 81.49 36.27 L 78.3 36.27 L 81.57 17.77 C 83.46 16.94 85.83 16.4 88.95 16.4 C 94.39 16.4 95.44 19.4 94.96 22.19 L 92.47 36.27 L 89.28 36.27 Z M 89.28 36.27" />
    <path fill="#bed600" fill-rule="evenodd" d="M 108.72 40.75 L 1.07 40.75 L 1.17 40.11 L 108.81 40.11 L 108.72 40.75 Z M 108.72 40.75" />
    <path fill="#ffffff" fill-rule="evenodd" d="M 58.97 26.28 C 58.1 31.2 55.91 34.57 51.89 34.57 C 50.88 34.57 49.88 34.46 49.22 34.1 L 51.86 19.15 C 52.86 18.64 53.73 18.39 55.18 18.39 C 58.88 18.39 59.72 22.01 58.97 26.28 M 56.31 16.51 C 54.39 16.51 53.24 16.9 52.17 17.41 L 53.85 7.9 L 50.34 9.93 L 45.87 35.26 C 46.89 36.02 48.81 36.63 51.46 36.63 C 57.25 36.63 61.08 32.43 62.18 26.17 C 63.22 20.27 60.8 16.51 56.31 16.51" />
    <path fill="#ffffff" fill-rule="evenodd" d="M 111.84 16.76 L 108.51 16.76 L 99.96 25.81 L 99.88 25.81 L 102.06 13.48 C 104.23 1.27 91.05 -1.3 77.27 0.8 C 67.92 2.23 59.65 5.96 59.65 5.96 C 59.65 5.96 70.44 2.19 79.94 1.65 C 91.94 0.97 101.33 2.78 98.59 15.48 L 94.92 36.27 L 98.04 36.27 L 99.81 26.21 L 99.88 26.21 L 105.57 36.27 L 109.2 36.27 L 102.84 25.88 L 111.84 16.76 Z M 111.84 16.76" />
    <path fill="#ffffff" fill-rule="evenodd" d="M 2.83 47.14 L 1.47 54.88 L 0.33 54.88 L 1.7 47.14 L 0 47.14 L 0.14 46.37 L 4.66 46.37 L 4.53 47.14 L 2.83 47.14 Z M 2.83 47.14" />
    <path fill="#ffffff" fill-rule="evenodd" d="M 8.16 54.88 L 9 50.15 C 9.12 49.46 8.93 48.84 7.87 48.84 C 7.37 48.84 6.96 48.93 6.51 49.17 L 5.5 54.88 L 4.41 54.88 L 6.13 45.17 L 7.21 45.17 L 6.62 48.56 C 7.22 48.27 7.73 48.15 8.23 48.15 C 9.92 48.15 10.26 49.17 10.09 50.11 L 9.25 54.88 L 8.16 54.88 Z M 8.16 54.88" />
    <path fill="#ffffff" fill-rule="evenodd" d="M 14.06 48.79 C 13.1 48.79 12.24 49.57 11.95 51.38 L 15.23 50.89 C 15.49 49.38 15.02 48.79 14.06 48.79 L 14.06 48.79 Z M 11.88 51.96 C 11.74 53.46 12.32 54.21 13.52 54.21 C 14.27 54.21 14.85 54.02 15.23 53.82 L 15.39 54.54 C 14.94 54.79 14.19 55 13.29 55 C 11.54 55 10.51 53.9 10.93 51.52 C 11.33 49.26 12.65 48.09 14.23 48.09 C 15.82 48.09 16.6 49.12 16.19 51.35 L 11.88 51.96 Z M 11.88 51.96" />
    <path fill="#ffffff" fill-rule="evenodd" d="M 24.44 46.92 C 23.98 46.92 23.63 47.01 23.44 47.08 L 22.81 50.65 L 23.18 50.68 C 24.94 50.86 25.74 50.04 25.96 48.8 C 26.18 47.57 25.74 46.92 24.44 46.92 M 23.07 51.38 L 22.69 51.34 L 22.07 54.88 L 20.95 54.88 L 22.39 46.71 C 22.91 46.44 23.7 46.24 24.61 46.24 C 26.61 46.24 27.33 47.32 27.06 48.81 C 26.8 50.32 25.54 51.63 23.07 51.38" />
    <path fill="#ffffff" fill-rule="evenodd" d="M 31.08 51.09 C 29.36 51.3 28.29 51.66 28.05 53.01 C 27.88 53.97 28.41 54.37 29.4 54.37 C 29.82 54.37 30.24 54.29 30.54 54.15 L 31.08 51.09 Z M 29.2 55 C 27.47 55 26.79 54.24 27.01 53.03 C 27.32 51.27 29.07 50.75 31.17 50.54 L 31.25 50.13 C 31.43 49.1 30.86 48.8 30.01 48.8 C 29.36 48.8 28.73 49.04 28.33 49.22 L 28.18 48.58 C 28.6 48.37 29.39 48.09 30.31 48.09 C 31.54 48.09 32.54 48.62 32.25 50.25 L 31.5 54.53 C 30.94 54.82 30.13 55 29.2 55 L 29.2 55 Z M 29.2 55" />
    <path fill="#ffffff" fill-rule="evenodd" d="M 36.67 54.88 L 37.52 50.09 C 37.63 49.47 37.48 48.79 36.35 48.79 C 35.73 48.79 35.41 48.88 35.04 49.03 L 34.01 54.88 L 32.92 54.88 L 34.03 48.56 C 34.68 48.27 35.49 48.09 36.56 48.09 C 38.41 48.09 38.78 49.11 38.61 50.06 L 37.76 54.88 L 36.67 54.88 Z M 36.67 54.88" />
    <path fill="#ffffff" fill-rule="evenodd" d="M 47.32 48.42 C 47.23 47.75 47.25 47.39 47.25 47.39 L 47.23 47.39 C 47.23 47.39 47.11 47.75 46.78 48.42 L 45.2 51.65 L 47.74 51.65 L 47.32 48.42 Z M 48.16 54.88 L 47.8 52.33 L 44.88 52.33 L 43.6 54.88 L 42.56 54.88 L 46.95 46.37 L 47.96 46.37 L 49.33 54.88 L 48.16 54.88 Z M 48.16 54.88" />
    <path fill="#ffffff" fill-rule="evenodd" d="M 52.8 48.89 L 51.75 54.88 L 50.65 54.88 L 51.71 48.89 L 50.94 48.89 L 51.06 48.21 L 51.83 48.21 L 52 47.27 C 52.23 45.96 53.17 45.1 54.62 45.17 L 54.5 45.86 C 53.84 45.9 53.27 46.21 53.11 47.15 L 52.92 48.21 L 54.08 48.21 L 53.96 48.89 L 52.8 48.89 Z M 52.8 48.89" />
    <path fill="#ffffff" fill-rule="evenodd" d="M 57.78 48.93 C 57.27 48.77 56.64 48.81 56.24 49.05 L 55.21 54.88 L 54.12 54.88 L 55.23 48.57 C 55.95 48.24 56.61 48.06 58.19 48.1 L 57.78 48.93 Z M 57.78 48.93" />
    <path fill="#ffffff" fill-rule="evenodd" d="M 60.13 46.92 C 59.77 46.92 59.53 46.65 59.59 46.33 C 59.65 46 59.98 45.72 60.34 45.72 C 60.69 45.72 60.92 46 60.87 46.33 C 60.81 46.65 60.47 46.92 60.13 46.92 L 60.13 46.92 Z M 58.18 54.88 L 59.36 48.21 L 60.45 48.21 L 59.27 54.88 L 58.18 54.88 Z M 58.18 54.88" />
    <path fill="#ffffff" fill-rule="evenodd" d="M 63.21 55 C 61.75 55 60.9 53.69 61.28 51.54 C 61.67 49.35 62.97 48.09 64.45 48.09 C 65.27 48.09 65.67 48.35 65.85 48.53 L 65.48 49.16 C 65.31 49.01 65.04 48.84 64.54 48.84 C 63.33 48.84 62.66 49.94 62.39 51.5 C 62.11 53.09 62.48 54.19 63.56 54.19 C 64.02 54.19 64.35 54.05 64.64 53.88 L 64.79 54.55 C 64.48 54.79 63.95 55 63.21 55" />
    <path fill="#ffffff" fill-rule="evenodd" d="M 69.96 51.09 C 68.24 51.3 67.18 51.66 66.94 53.01 C 66.77 53.97 67.29 54.37 68.28 54.37 C 68.7 54.37 69.13 54.29 69.43 54.15 L 69.96 51.09 Z M 68.08 55 C 66.35 55 65.68 54.24 65.89 53.03 C 66.21 51.27 67.96 50.75 70.06 50.54 L 70.13 50.13 C 70.32 49.1 69.75 48.8 68.89 48.8 C 68.25 48.8 67.61 49.04 67.21 49.22 L 67.06 48.58 C 67.49 48.37 68.28 48.09 69.19 48.09 C 70.43 48.09 71.43 48.62 71.14 50.25 L 70.38 54.53 C 69.83 54.82 69.02 55 68.08 55 L 68.08 55 Z M 68.08 55" />
    <path fill="#ffffff" fill-rule="evenodd" d="M 75.56 54.88 L 76.4 50.09 C 76.51 49.47 76.37 48.79 75.23 48.79 C 74.61 48.79 74.3 48.88 73.93 49.03 L 72.89 54.88 L 71.81 54.88 L 72.92 48.56 C 73.57 48.27 74.38 48.09 75.45 48.09 C 77.3 48.09 77.67 49.11 77.5 50.06 L 76.65 54.88 L 75.56 54.88 Z M 75.56 54.88" />
    <path fill="#ffffff" fill-rule="evenodd" d="M 85.78 46.9 C 85.33 46.9 84.99 46.96 84.62 47.08 L 84.09 50.11 L 84.64 50.11 C 86.4 50.11 87.09 49.57 87.28 48.46 C 87.47 47.42 86.94 46.9 85.78 46.9 M 84.55 50.68 L 83.98 50.68 L 83.39 54.07 C 83.68 54.21 84.03 54.27 84.55 54.27 C 85.67 54.27 86.61 53.82 86.83 52.59 C 87.06 51.27 86.4 50.68 84.55 50.68 M 84.47 55 C 83.51 55 82.72 54.83 82.23 54.53 L 83.61 46.71 C 84.13 46.44 84.98 46.24 85.91 46.24 C 87.78 46.24 88.62 47.14 88.4 48.37 C 88.19 49.58 87.19 50.2 86.4 50.35 L 86.39 50.37 C 87.16 50.52 88.21 51.28 87.99 52.57 C 87.68 54.28 86.23 55 84.47 55" />
    <path fill="#ffffff" fill-rule="evenodd" d="M 92.96 51.09 C 91.24 51.3 90.17 51.66 89.93 53.01 C 89.76 53.97 90.29 54.37 91.28 54.37 C 91.7 54.37 92.12 54.29 92.42 54.15 L 92.96 51.09 Z M 91.08 55 C 89.35 55 88.67 54.24 88.89 53.03 C 89.2 51.27 90.95 50.75 93.06 50.54 L 93.13 50.13 C 93.31 49.1 92.74 48.8 91.89 48.8 C 91.24 48.8 90.61 49.04 90.2 49.22 L 90.06 48.58 C 90.48 48.37 91.27 48.09 92.19 48.09 C 93.43 48.09 94.42 48.62 94.13 50.25 L 93.38 54.53 C 92.82 54.82 92.01 55 91.08 55 L 91.08 55 Z M 91.08 55" />
    <path fill="#ffffff" fill-rule="evenodd" d="M 98.69 54.88 L 99.54 50.09 C 99.64 49.47 99.5 48.79 98.36 48.79 C 97.74 48.79 97.43 48.88 97.06 49.03 L 96.03 54.88 L 94.94 54.88 L 96.06 48.56 C 96.7 48.27 97.51 48.09 98.57 48.09 C 100.43 48.09 100.8 49.11 100.63 50.06 L 99.78 54.88 L 98.69 54.88 Z M 98.69 54.88" />
    <path fill="#ffffff" fill-rule="evenodd" d="M 104.96 54.88 L 103.02 51.44 L 102.99 51.44 L 102.39 54.88 L 101.32 54.88 L 103.04 45.17 L 104.1 45.17 L 103.02 51.3 L 103.04 51.3 L 105.97 48.21 L 107.11 48.21 L 104.03 51.33 L 106.2 54.88 L 104.96 54.88 Z M 104.96 54.88" />
</svg>